<?xml version="1.0" encoding="UTF-8" standalone="no" ?>
<!DOCTYPE svg PUBLIC "-//W3C//DTD SVG 1.1//EN" "http://www.w3.org/Graphics/SVG/1.1/DTD/svg11.dtd">
<svg xmlns="http://www.w3.org/2000/svg" xmlns:xlink="http://www.w3.org/1999/xlink" version="1.1" width="400" height="480" viewBox="0 0 400 480" xml:space="preserve">
<desc>Created with Fabric.js 3.6.3</desc>
<defs>
</defs>
<g transform="matrix(0.96 0 0 0.96 199.95 145.15)"  >
<path style="stroke: none; stroke-width: 1; stroke-dasharray: none; stroke-linecap: butt; stroke-dashoffset: 0; stroke-linejoin: miter; stroke-miterlimit: 4; fill: rgb(0,0,0); fill-rule: nonzero; opacity: 1;"  transform=" translate(-207.17, -207.17)" d="M 408.265 162.615 L 230.506 58.601 c -3.795 -2.222 -8.485 -2.241 -12.304 -0.057 c -3.815 2.187 -6.17 6.246 -6.174 10.644 l -0.036 46.966 c -0.213 0.052 -0.38 0.094 -0.495 0.126 c -4.442 1.239 -9.163 2.603 -14.854 4.294 c -18.457 5.483 -37.417 12.593 -59.668 22.374 c -19.309 8.487 -38.201 19.442 -56.15 32.559 c -12.826 9.373 -24.894 20.182 -35.867 32.126 C 15.1 240.129 -1.259 283.28 0.076 326.023 c 0.234 7.488 1.076 14.674 1.869 20.716 c 0.788 6.007 5.84 10.541 11.898 10.677 c 0.093 0.002 0.186 0.003 0.277 0.003 c 5.94 0 11.048 -4.263 12.086 -10.139 c 3.304 -18.678 8.574 -34.022 16.111 -46.91 c 9.42 -16.104 22.223 -29.625 37.021 -39.102 c 12.718 -8.146 26.153 -14.396 41.075 -19.113 c 17.405 -5.503 36.597 -8.952 58.671 -10.545 c 8.907 -0.644 18.502 -0.967 30.2 -1.021 c 0.354 0 1.112 0.007 2.098 0.02 l 0.032 44.29 c 0.003 4.372 2.332 8.413 6.113 10.607 c 3.782 2.196 8.446 2.214 12.245 0.049 l 178.37 -101.678 c 3.811 -2.172 6.172 -6.21 6.196 -10.597 C 414.366 168.896 412.05 164.831 408.265 162.615 z" stroke-linecap="round" />
</g>
<g transform="matrix(-0.96 0 0 -0.96 199.95 328.15)"  >
<path style="stroke: none; stroke-width: 1; stroke-dasharray: none; stroke-linecap: butt; stroke-dashoffset: 0; stroke-linejoin: miter; stroke-miterlimit: 4; fill: rgb(0,0,0); fill-rule: nonzero; opacity: 1;"  transform=" translate(-207.17, -207.17)" d="M 408.265 162.615 L 230.506 58.601 c -3.795 -2.222 -8.485 -2.241 -12.304 -0.057 c -3.815 2.187 -6.17 6.246 -6.174 10.644 l -0.036 46.966 c -0.213 0.052 -0.38 0.094 -0.495 0.126 c -4.442 1.239 -9.163 2.603 -14.854 4.294 c -18.457 5.483 -37.417 12.593 -59.668 22.374 c -19.309 8.487 -38.201 19.442 -56.15 32.559 c -12.826 9.373 -24.894 20.182 -35.867 32.126 C 15.1 240.129 -1.259 283.28 0.076 326.023 c 0.234 7.488 1.076 14.674 1.869 20.716 c 0.788 6.007 5.84 10.541 11.898 10.677 c 0.093 0.002 0.186 0.003 0.277 0.003 c 5.94 0 11.048 -4.263 12.086 -10.139 c 3.304 -18.678 8.574 -34.022 16.111 -46.91 c 9.42 -16.104 22.223 -29.625 37.021 -39.102 c 12.718 -8.146 26.153 -14.396 41.075 -19.113 c 17.405 -5.503 36.597 -8.952 58.671 -10.545 c 8.907 -0.644 18.502 -0.967 30.2 -1.021 c 0.354 0 1.112 0.007 2.098 0.02 l 0.032 44.29 c 0.003 4.372 2.332 8.413 6.113 10.607 c 3.782 2.196 8.446 2.214 12.245 0.049 l 178.37 -101.678 c 3.811 -2.172 6.172 -6.21 6.196 -10.597 C 414.366 168.896 412.05 164.831 408.265 162.615 z" stroke-linecap="round" />
</g>
</svg>